<?xml version="1.0" encoding="UTF-8"?>
<svg version="1.1" xmlns="http://www.w3.org/2000/svg" width="706" height="704">
<path d="M0 0 C1.07314453 0.26844727 2.14628906 0.53689453 3.25195312 0.81347656 C50.96041842 12.95468704 96.37941087 31.79008051 134.5 63.5 C135.0043457 63.91411133 135.50869141 64.32822266 136.02832031 64.75488281 C149.77571845 76.07289 162.58753312 88.39804372 173.5 102.5 C174.35196592 103.55256639 175.20625585 104.60325467 176.0625 105.65234375 C204.77674886 141.07740791 225.11334673 183.47109891 236.5 227.5 C236.73412598 228.39283691 236.96825195 229.28567383 237.20947266 230.20556641 C243.88281335 256.09508414 246.72679605 282.74311042 246.6875 309.4375 C246.68659363 310.58493683 246.68659363 310.58493683 246.68566895 311.7555542 C246.65795141 324.75609251 246.1634466 337.59284418 244.5 350.5 C244.37641113 351.46953613 244.25282227 352.43907227 244.12548828 353.43798828 C239.64444059 387.19521425 229.88707022 419.67666262 215.5 450.5 C215.06816406 451.42554688 214.63632812 452.35109375 214.19140625 453.3046875 C201.97423417 479.1891411 186.39979214 503.00910732 167.5 524.5 C166.86578125 525.23347656 166.2315625 525.96695313 165.578125 526.72265625 C163.89846837 528.66042525 162.20274164 530.58249815 160.5 532.5 C159.80390625 533.28890625 159.1078125 534.0778125 158.390625 534.890625 C150.89901399 543.3122291 143.08272445 551.19428991 134.5 558.5 C133.58992187 559.29921875 132.67984375 560.0984375 131.7421875 560.921875 C89.06484958 598.1274077 35.89442498 623.28525245 -19.5 634.25 C-20.43400635 634.43667236 -21.3680127 634.62334473 -22.33032227 634.81567383 C-42.5030621 638.57223304 -62.62780509 640.05588188 -83.125 639.9375 C-84.81713623 639.93293793 -84.81713623 639.93293793 -86.54345703 639.92828369 C-104.84578652 639.85565028 -122.48729936 638.89276807 -140.5 635.5 C-142.29050781 635.17056396 -142.29050781 635.17056396 -144.1171875 634.83447266 C-221.56765923 620.25058186 -295.31760299 577.37507832 -343.22509766 514.16455078 C-344.45433548 512.55962097 -345.71686373 510.98035758 -346.98046875 509.40234375 C-354.25859314 500.24972628 -360.45836698 490.50339449 -366.5 480.5 C-366.89541992 479.84725098 -367.29083984 479.19450195 -367.69824219 478.52197266 C-412.62939597 403.55079329 -424.59883191 312.70410946 -403.68701172 228.21533203 C-401.85940413 221.2319242 -399.74233351 214.36005953 -397.5 207.5 C-397.19288086 206.53562012 -396.88576172 205.57124023 -396.56933594 204.57763672 C-385.24163254 169.4036654 -367.14403528 136.61272482 -344.5 107.5 C-343.85272949 106.665896 -343.85272949 106.665896 -343.19238281 105.81494141 C-338.16598015 99.39001368 -332.72801312 93.36616879 -327.17578125 87.3984375 C-324.79871593 84.82357258 -322.49060892 82.20317034 -320.1875 79.5625 C-310.38157259 68.67477989 -299.22142618 59.24714896 -287.5 50.5 C-286.86787598 50.02208008 -286.23575195 49.54416016 -285.58447266 49.05175781 C-274.66244275 40.84332612 -263.1777827 34.08215139 -251.04541016 27.81494141 C-249.49059792 27.01173608 -247.93970724 26.20080445 -246.39599609 25.37646484 C-219.18322315 10.87177246 -170.63754485 -7.62134945 -140.1875 0.6875 C-127.93277852 5.01269582 -117.62163201 12.8912954 -111.5 24.5 C-107.89987676 32.784899 -106.37496451 40.39902835 -106.26293945 49.42626953 C-106.24982727 50.19790939 -106.23671509 50.96954926 -106.22320557 51.76457214 C-106.18159009 54.30393648 -106.14695091 56.84333114 -106.11328125 59.3828125 C-106.08758963 61.16153085 -106.06180587 62.94024788 -106.03593445 64.71896362 C-105.98304807 68.44606857 -105.93412697 72.17320302 -105.88745117 75.90039062 C-105.82728425 80.64780398 -105.7529883 85.39487996 -105.67507648 90.14203072 C-105.61710382 93.81738873 -105.56898636 97.49283 -105.523489 101.16836166 C-105.50027539 102.91687903 -105.47358251 104.66535416 -105.44317055 106.41376114 C-105.08340933 127.61396549 -107.92221683 143.29237336 -123.07421875 159.203125 C-132.43232657 168.11040427 -143.20350754 173.94545557 -154.68701172 179.57299805 C-176.40318465 190.29460385 -194.2317141 207.38453672 -207.5 227.5 C-207.93296387 228.15307129 -208.36592773 228.80614258 -208.81201172 229.47900391 C-228.57533763 259.81323969 -236.93889999 300.00777428 -230.375 335.8125 C-229.80170648 338.38706128 -229.17544295 340.95033177 -228.5 343.5 C-228.31727539 344.24330566 -228.13455078 344.98661133 -227.94628906 345.75244141 C-223.14401591 365.06798835 -214.79832025 383.78301311 -202.5 399.5 C-201.80648437 400.41265625 -201.11296875 401.3253125 -200.3984375 402.265625 C-176.17343594 433.09744516 -141.73087788 451.58512579 -103.25 457.8125 C-63.83846123 462.26288006 -23.68492088 452.20072523 7.83886719 427.83398438 C12.63542829 423.98207229 17.07484372 419.76711499 21.5 415.5 C22.27859375 414.78457031 23.0571875 414.06914062 23.859375 413.33203125 C47.2197579 391.25564103 63.23647904 355.96559574 64.66113281 323.86987305 C65.11166449 282.47596572 57.54862611 245.69274745 29.5 213.5 C28.95988281 212.87480469 28.41976563 212.24960938 27.86328125 211.60546875 C15.06498557 197.84004746 -3.19275579 189.25528589 -20.1875 182.0625 C-38.71743044 174.1419603 -51.62835519 163.46459166 -59.35462952 144.3901062 C-62.6764555 134.26719414 -61.95281635 123.53202117 -61.93359375 113.0078125 C-61.93816242 110.81265096 -61.94347002 108.61749084 -61.94947815 106.42233276 C-61.95838218 101.83471851 -61.95601725 97.24727858 -61.94604492 92.65966797 C-61.93456286 86.81052304 -61.95476949 80.96198254 -61.98396206 75.11291695 C-62.00239919 70.58300011 -62.00201658 66.05322608 -61.99632454 61.5232811 C-61.99617222 59.36813383 -62.00214158 57.21297632 -62.01461601 55.05786514 C-62.10442305 37.00063564 -60.48177047 23.17471649 -47.875 9.3125 C-34.42051386 -3.57602305 -17.09868335 -4.38810871 0 0 Z " fill="#0C91F4" transform="translate(435.5,40.5)"/>
<path d="M0 0 C0.51481934 0.42587402 1.02963867 0.85174805 1.56005859 1.29052734 C25.66707888 21.47365973 41.56014283 51.15878045 44.80517578 82.51416016 C47.56562977 117.73589261 38.70564521 151.24796294 15.72705078 178.51025391 C-6.32634801 204.30872376 -36.33993497 219.57576134 -70.07714844 222.55078125 C-103.27422439 224.9624831 -135.57710541 214.46304583 -161 193 C-161.94359375 192.22011719 -162.8871875 191.44023437 -163.859375 190.63671875 C-188.06343843 169.74874876 -202.40269778 138.63644144 -205 107 C-206.93409832 73.37091271 -197.03040333 40.35018279 -174.625 14.875 C-173.09362537 13.24029732 -171.55155411 11.61556212 -170 10 C-169.15695312 9.09378906 -168.31390625 8.18757813 -167.4453125 7.25390625 C-152.04851271 -8.83463382 -132.30566804 -19.1076742 -111 -25 C-109.79988281 -25.3403125 -108.59976563 -25.680625 -107.36328125 -26.03125 C-70.14222748 -34.72286904 -29.13321669 -24.40251845 0 0 Z " fill="#F95454" transform="translate(431,253)"/>
<path d="M0 0 C8.98424129 6.07794664 15.2484776 14.67156621 17.8984375 25.3671875 C19.55121399 36.56933927 16.66752425 47.60642228 9.9296875 56.7578125 C1.85114793 66.33933618 -8.30052178 70.88079701 -20.72265625 72.0234375 C-32.10575878 72.39759763 -41.99559599 69.16824604 -50.75 61.765625 C-54.35817628 58.12925984 -57.15426308 54.15360789 -59.75 49.75 C-60.11222656 49.14929688 -60.47445313 48.54859375 -60.84765625 47.9296875 C-64.81166726 39.70666931 -63.97258691 27.26132163 -61.1875 18.75 C-56.65269461 8.32152768 -49.11860362 0.91466077 -38.67578125 -3.5703125 C-25.00925052 -8.28518317 -12.37323064 -7.42060328 0 0 Z " fill="#FEFDFD" transform="translate(417.75,278.25)"/>
</svg>
